<?xml version="1.0" standalone="no"?><!DOCTYPE svg PUBLIC "-//W3C//DTD SVG 1.1//EN" "http://www.w3.org/Graphics/SVG/1.1/DTD/svg11.dtd">
<svg class="icon" style="fill: #fff;" viewBox="0 0 1024 1024" version="1.1" xmlns="http://www.w3.org/2000/svg" p-id="634"><path d="M685.504 576.384M357.696 576.384M672 581.28l-128 0 0-96 128 0c17.664 0 32-14.336 32-32 0-17.664-14.336-32-32-32l-78.752 0 81.248-81.248c12.512-12.512 12.512-32.768 0-45.248-12.512-12.512-32.768-12.512-45.248 0l-113.024 113.024-113.024-113.024c-12.512-12.512-32.768-12.512-45.248 0-12.512 12.512-12.512 32.768 0 45.248l81.248 81.248L352 421.28c-17.664 0-32 14.336-32 32 0 17.664 14.336 32 32 32l128 0 0 96-128 0c-17.664 0-32 14.336-32 32 0 17.664 14.336 32 32 32l128 0 0 128c0 17.664 14.336 32 32 32s32-14.336 32-32l0-128 128 0c17.664 0 32-14.336 32-32C704 595.616 689.664 581.28 672 581.28zM832 1024 192 1024c-70.592 0-128-57.408-128-128L64 128c0-70.592 57.408-128 128-128l31.488 0c17.664 0 32 14.336 32 32s-14.336 32-32 32L192 64C156.704 64 128 92.704 128 128l0 768c0 35.296 28.704 64 64 64l640 0c35.296 0 64-28.704 64-64L896 128c0-35.296-28.704-64-64-64l-30.496 0c-17.696 0-32-14.336-32-32s14.304-32 32-32L832 0c70.592 0 128 57.408 128 128l0 768C960 966.592 902.592 1024 832 1024zM704 32c0 17.664-14.336 32-32 32L352 64C334.336 64 320 49.664 320 32l0 0c0-17.664 14.336-32 32-32l320 0C689.664 0 704 14.336 704 32L704 32z" p-id="634"></path></svg>