<svg class="icon" style="fill: #ccc;overflow: hidden;" viewBox="0 0 1070 1024" version="1.1" xmlns="http://www.w3.org/2000/svg" p-id="1720"><path d="M954.181818 513.163636c-25.6 0-46.545455 20.945455-46.545454 46.545455V930.909091h-69.818182V681.890909c0-25.6-17.454545-41.890909-43.054546-41.890909H592.290909c-25.6 0-45.381818 16.290909-45.381818 41.890909V930.909091H162.909091V559.709091c0-25.6-20.945455-46.545455-46.545455-46.545455s-46.545455 20.945455-46.545454 46.545455V977.454545c0 25.6 22.109091 46.545455 47.709091 46.545455H593.454545c25.6 0 47.709091-20.945455 47.709091-46.545455V733.090909h108.218182v246.690909c0 25.6 20.945455 44.218182 46.545455 44.218182H954.181818c25.6 0 46.545455-20.945455 46.545455-46.545455V559.709091c0-25.6-20.945455-46.545455-46.545455-46.545455z" fill="" p-id="1721"></path><path d="M424.727273 814.545455c22.109091 0 40.727273-18.618182 40.727272-40.727273v-151.272727c0-22.109091-18.618182-40.727273-40.727272-40.727273h-151.272728c-22.109091 0-40.727273 18.618182-40.727272 40.727273v151.272727c0 22.109091 18.618182 40.727273 40.727272 40.727273h151.272728zM314.181818 663.272727h69.818182v69.818182h-69.818182v-69.818182zM1057.745455 272.290909l-103.563637-104.727273V46.545455c0-25.6-20.945455-46.545455-47.709091-46.545455H164.072727C138.472727 0 116.363636 20.945455 116.363636 46.545455v121.018181l-103.563636 104.727273c-8.145455 8.145455-12.8 19.781818-12.8 32.581818v118.690909C0 449.163636 20.945455 465.454545 46.545455 465.454545h977.454545c25.6 0 46.545455-16.290909 46.545455-43.054545V304.872727c0-12.8-4.654545-24.436364-12.8-32.581818zM209.454545 93.090909h651.636364v58.181818H209.454545V93.090909z m768 279.272727H93.090909v-48.872727l95.418182-90.763636h693.527273l95.418181 90.763636V372.363636z" p-id="1722"></path></svg>