<?xml version="1.0" standalone="no"?><!DOCTYPE svg PUBLIC "-//W3C//DTD SVG 1.1//EN" "http://www.w3.org/Graphics/SVG/1.1/DTD/svg11.dtd">
<svg class="icon" style="fill: #fff;overflow: hidden;" viewBox="0 0 1025 1024" version="1.1" xmlns="http://www.w3.org/2000/svg" p-id="7809"><path d="M512.024246 999.040544M520.547392 564.712319c-0.561489 0.497683-1.167642 0.798846-1.65384 1.040031-0.13782 0.070186-0.279468 0.13782-0.417288 0.216939-0.199073 0.104641-0.292229 0.168447-0.387938 0.228424-0.266707 0.169723-0.598496 0.380281-1.025993 0.561489-1.800593 0.728659-3.436567 1.074486-5.049571 1.074486-1.592587 0-3.275777-0.353483-5.003631-1.054068-0.501512-0.220767-0.843509-0.437706-1.119149-0.611257-0.105917-0.066358-0.210558-0.133992-0.320304-0.195245-0.211834-0.123783-0.354759-0.193969-0.498959-0.265431-0.455572-0.230976-1.024717-0.515549-1.600243-1.008128l-62.840813-52.901184L250.616726 701.795997c-1.267178 1.256969-2.742363 2.229366-4.34771 2.884011 5.24354 4.878573 11.983959 7.687293 19.09445 7.87871l0.774599-0.005104 491.75067 0c4.900266 0 9.662713-1.216134 13.950446-3.539932L578.62831 515.824505 520.547392 564.712319zM236.645862 340.005752c-0.011485 0.320304-0.016589 0.638056-0.016589 0.955807l0 337.373135 183.657903-183.670664L236.645862 340.005752zM447.603608 483.048869c0.09188 0.058701 0.187588 0.108469 0.282021 0.16079 0.409632 0.228424 0.971121 0.539795 1.509639 1.084694 0.251394 0.234804 0.432602 0.511721 0.557661 0.723555l62.062385 52.264404 261.221208-219.996441c0.320304-0.270536 0.655921-0.524482 1.005576-0.760562-4.872192-3.298747-10.552162-5.08275-16.350811-5.08275L266.129131 311.442559c-5.799925 0-11.481171 1.789108-16.353363 5.098064 0.349654 0.234804 0.683996 0.486198 1.003023 0.754182L447.603608 483.048869zM512.024246 0C229.236761 0 0 229.236761 0 512.024246c0 282.747926 229.236761 511.974478 512.024246 511.974478 282.778552 0 512.005104-229.226552 512.005104-511.974478C1024.029351 229.236761 794.802798 0 512.024246 0zM813.889591 683.053754c0 30.878059-25.121522 55.999581-55.999581 55.999581L266.13934 739.053335c-30.881887 0-56.004686-25.121522-56.004686-55.999581L210.134655 340.965388c0-30.880611 25.124074-56.00341 56.004686-56.00341l491.75067 0c30.878059 0 55.999581 25.121522 55.999581 55.999581L813.889591 683.053754zM598.961864 498.68761l188.137052 188.137052c0.202902-1.30929 0.301162-2.553498 0.301162-3.776013l0-342.08709c0-0.316476-0.006381-0.635503-0.017866-0.955807L598.961864 498.68761z" p-id="7810"></path></svg>