<?xml version="1.0" standalone="no"?><!DOCTYPE svg PUBLIC "-//W3C//DTD SVG 1.1//EN" "http://www.w3.org/Graphics/SVG/1.1/DTD/svg11.dtd"><svg t="1549761853526" class="icon" style="fill: #fff;" viewBox="0 0 1024 1024" version="1.1" xmlns="http://www.w3.org/2000/svg" p-id="3032" xmlns:xlink="http://www.w3.org/1999/xlink" width="68" height="68"><defs><style type="text/css"></style></defs><path d="M512 952.32a440.32 440.32 0 1 1 440.32-440.32 440.32 440.32 0 0 1-440.32 440.32z m0-839.68a399.36 399.36 0 1 0 399.36 399.36 399.36 399.36 0 0 0-399.36-399.36zM744.3456 536.3712l-64.6144-13.4144 16.0768-71.68L750.592 450.56 727.04 383.8976h-77.824l82.6368-63.6928L647.168 256l-49.3568 124.1088-58.6752 12.1856 28.672-81.92L450.56 262.7584l45.7728 121.344-59.392 12.4928v-33.5872l-40.96-5.7344-35.0208-98.4064-48.7424 103.7312-48.64 15.7696 33.3824 59.392 18.6368 5.9392 10.24 64L256 520.6016l29.5936 101.5808 33.28-29.9008 13.1072 87.552-62.8736 18.2272 98.4064 67.2768 25.088-185.9584 16.6912-20.48 16.0768 42.9056 37.7856 6.3488 4.3008 156.7744 46.1824-30.72 36.352-136.704 47.8208 4.5056L624.64 765.3376l43.8272-28.672 18.944-128.3072 80.1792-10.24z m-318.2592 9.4208l18.6368-40.96-58.368 6.0416 9.6256-71.168 19.6608-25.088 16.0768 37.1712 42.5984 11.776 10.24 59.392zM551.3216 532.48l10.24-70.144 47.2064-9.6256 6.7584 67.9936z m0 0" p-id="1850"></path></svg>