<svg class="icon" style="fill: #fff;overflow: hidden;" viewBox="0 0 1024 1024" version="1.1" xmlns="http://www.w3.org/2000/svg" p-id="4405"><path d="M935.07072 190.11584c-13.43488-47.52896-50.88256-84.97664-98.41152-98.41152a142.76608 142.76608 0 0 0-38.90176-5.37088H227.072c-13.48096 0-26.53184 1.87392-38.89664 5.37088-47.52384 13.44-84.97152 50.88256-98.41152 98.41152a142.72512 142.72512 0 0 0-5.37088 38.89664v570.68544c0 13.48096 1.87392 26.52672 5.36576 38.89152 13.44 47.52384 50.88256 84.97664 98.41152 98.41152a142.53056 142.53056 0 0 0 38.89664 5.37088h570.69056c13.4912 0 26.53696-1.8688 38.90688-5.37088 47.50848-13.44 84.95616-50.88256 98.39616-98.39104a142.83776 142.83776 0 0 0 5.37088-38.912l0.01024-570.68544c0-13.48096-1.87392-26.53184-5.37088-38.89664zM459.264 695.65952l-0.07168 0.06144c-7.37792 6.29248-12.2368 12.65664-15.37024 18.6624a187.19744 187.19744 0 0 1-15.616-0.73216c-45.65504 25.50784-124.22656 17.01888-143.62624-0.3328-15.01184-13.39392-14.22848-30.88896 3.47136-45.95712 4.68992-3.95776 12.94848-7.38816 22.48704-10.29632-15.54944-16.95744-27.36128-36.9664-34.42688-58.83392-4.11648 6.53824-7.82848 12.544-10.2912 16.87552-9.5488 16.8448-21.16096 18.47296-27.78624 0.24576-7.36256-20.20864-4.84864-51.12832 8.71424-86.07744 8.38656-21.59104 22.41536-39.9104 32.65024-51.74784-3.78368-6.62528-5.94432-13.55264-5.94432-20.73088 0-14.98112 8.81152-28.9536 23.92576-40.96 7.68512-77.61408 70.41024-138.1376 146.70336-138.1376 40.56064 0 77.30176 17.1264 103.96672 44.83584a166.00576 166.00576 0 0 0-32.64 24.15616c-28.39552 26.93632-46.848 63.01696-52.46976 102.28736-20.44928 18.73408-24.95488 37.59616-24.95488 50.59072 0 5.9136 0.95744 11.81696 2.84672 17.6384-12.63616 16.0512-22.12864 32.13312-28.26752 47.9488-15.0016 38.656-18.14528 73.984-8.8576 99.47136 7.45984 20.54144 20.43904 24.62208 27.50464 25.23136 10.42944 0.89088 18.64704-4.19328 24.65792-10.368a172.6208 172.6208 0 0 0 7.98208 12.8c-1.67424 1.0752-3.2 2.20672-4.58752 3.36896z m347.30496-51.51744c-5.81632 15.95904-15.9744 14.53056-24.34048-0.22016-2.1504-3.7888-5.40672-9.05216-9.0112-14.78144a139.6736 139.6736 0 0 1-29.92128 51.28192c8.7296 2.61632 16.2816 5.6832 20.5312 9.27744 15.488 13.19936 16.18432 28.5184 3.05152 40.25344-16.9984 15.20128-85.94432 22.64576-125.91104 0.256-4.89472 0.43008-9.85088 0.68096-14.86336 0.68096a162.048 162.048 0 0 1-13.90592-0.64512c-39.99232 22.34368-108.82048 14.90944-125.80864-0.29184-13.14304-11.73504-12.46208-27.05408 3.04128-40.25344 4.10624-3.47136 11.3408-6.48192 19.69664-9.02144a139.88352 139.88352 0 0 1-30.1568-51.53792 415.488 415.488 0 0 0-9.01632 14.78144c-8.36608 14.76608-18.53952 16.18944-24.34048 0.22016-6.4512-17.69984-4.2496-44.78464 7.6288-75.40224 7.35232-18.91328 19.6352-34.95936 28.60032-45.33248-3.31264-5.80096-5.20704-11.86816-5.20704-18.15552 0-13.12256 7.72096-25.36448 20.95104-35.88096 6.7328-67.98848 61.68064-121.00096 128.512-121.00096 66.81088 0 121.76384 53.02272 128.50176 121.00096 13.22496 10.51648 20.95104 22.7584 20.95104 35.88096 0 6.28736-1.87392 12.35456-5.20192 18.15552 8.96512 10.38336 21.26336 26.41408 28.5952 45.33248h-0.01024c11.88352 30.6176 14.08512 57.7024 7.63392 75.40224z" p-id="4406"></path></svg>