<?xml version="1.0" standalone="no"?><!DOCTYPE svg PUBLIC "-//W3C//DTD SVG 1.1//EN" "http://www.w3.org/Graphics/SVG/1.1/DTD/svg11.dtd">
<svg class="icon" style="fill: #fff;overflow: hidden;" viewBox="0 0 1024 1024" version="1.1" xmlns="http://www.w3.org/2000/svg" p-id="11461"><path d="M784.5 655.5c-40.4 0-75.4 23.7-91.7 58L437.1 645c1.3-7.8 1.9-15.8 1.9-24 0-33.8-11.2-65-30.1-90.2l181.4-181.4c20 21.6 48.6 35.1 80.2 35.1 60.4 0 109.5-49.1 109.5-109.5s-49.1-109.5-109.5-109.5S561 214.6 561 275c0 17.8 4.3 34.6 11.8 49.5L388.6 508.7c-26.6-23.7-61.7-38.2-100.1-38.2-83 0-150.5 67.5-150.5 150.5s67.5 150.5 150.5 150.5c64.4 0 119.4-40.6 140.9-97.5l254.7 68.2c-0.7 4.8-1.1 9.8-1.1 14.8 0 56 45.5 101.5 101.5 101.5S886 813 886 757s-45.5-101.5-101.5-101.5z m-114-460c43.8 0 79.5 35.7 79.5 79.5s-35.7 79.5-79.5 79.5c-23.4 0-44.4-10.2-59-26.3l0.1-0.1-1.5-1.5C598.2 312.7 591 294.7 591 275c0-43.8 35.7-79.5 79.5-79.5z m-382 546C222.1 741.5 168 687.4 168 621s54.1-120.5 120.5-120.5S409 554.6 409 621s-54.1 120.5-120.5 120.5z m496 87c-39.4 0-71.5-32.1-71.5-71.5s32.1-71.5 71.5-71.5S856 717.6 856 757s-32.1 71.5-71.5 71.5z" p-id="11462"></path></svg>