<?xml version="1.0" standalone="no"?><!DOCTYPE svg PUBLIC "-//W3C//DTD SVG 1.1//EN" "http://www.w3.org/Graphics/SVG/1.1/DTD/svg11.dtd">
<svg class="icon" style="fill: #fff;" viewBox="0 0 1029 1024" version="1.1" xmlns="http://www.w3.org/2000/svg" p-id="3291"><path d="M509.9776 0C228.3264 0 0 228.3264 0 509.9776s228.3264 509.9264 509.9776 509.9264 509.9264-228.2752 509.9264-509.9264S791.6544 0 509.9776 0zM509.9776 961.5104c-249.3952 0-451.584-202.1376-451.584-451.5072 0-249.3952 202.1888-451.584 451.584-451.584 249.3696 0 451.5072 202.1888 451.5072 451.584C961.5104 759.3472 759.3472 961.5104 509.9776 961.5104zM436.5056 298.4448l27.264 0 0-25.728 77.4656 0 0 25.728 90.0864 0 0-25.728 77.44 0 0 25.728 46.5664 0L729.088 355.072l-20.3264 0 0 20.3264-77.44 25.984 0-46.336-90.0864 0 0 20.3264-77.4656 25.984 0-46.336-37.8368 0 0-32.4352-24.96 61.7728 0 296.9856-75.6736 65.8688-46.3104 0.5376 0-55.6032 46.3104-0.256-0.512-92.6464-50.944 0 0-57.9072 50.944 0 0-92.3648-50.176 0 0-55.3472 40.9088-0.512-50.944-120.448 79.0016-0.512 13.6448 42.7264 17.5104-42.7264 73.856 0L436.5056 298.4448zM428.8 742.0928 428.8 404.224l316.0064 0 0 274.3296-75.648 63.5392L428.8 742.0928zM548.9664 533.9136l0-73.6-44.7744 0 0 73.6L548.9664 533.9136zM548.1984 590.0288l-44.0064 0 0 96.512 44.0064 0L548.1984 590.0288zM624.384 533.9136l44.7744 0 0-73.6L624.384 460.3136 624.384 533.9136zM669.1584 540.5952l-23.1424 49.4336L624.384 590.0288l0 96.512 45.0304 0L669.1584 540.5952z" p-id="4161"></path></svg>