<svg class="icon" style="fill: #fff;overflow: hidden;" viewBox="0 0 1024 1024" version="1.1" xmlns="http://www.w3.org/2000/svg" p-id="1794"><path d="M512 960c-246.4 0-448-201.6-448-448s201.6-448 448-448 448 201.6 448 448-201.6 448-448 448z m0-64c211.2 0 384-172.8 384-384s-172.8-384-384-384-384 172.8-384 384 172.8 384 384 384z m32-505.6l80 80c12.8 12.8 32 12.8 44.8 0 12.8-12.8 12.8-32 0-44.8l-112-112c-25.6-25.6-64-25.6-89.6 0l-112 112c-12.8 12.8-12.8 32 0 44.8 12.8 12.8 32 12.8 44.8 0l80-80v313.6c0 19.2 12.8 32 32 32s32-12.8 32-32v-313.6z" p-id="1795"></path></svg>